<svg width="658" height="357" viewBox="0 0 658 357" fill="none" xmlns="http://www.w3.org/2000/svg">
<path d="M44.6447 59.466C41.039 52.8869 35.9907 52.4976 33.1792 59.466C31.9396 65.5828 31.7196 68.993 31.8034 75.059C30.3766 81.3718 28.3849 80.4631 24.9241 79.1866C25.7144 86.7166 26.4444 90.4758 28.1344 96.6141C25.7209 96.8064 24.4202 96.0213 22.1724 93.4038C25.6469 104.468 25.8096 110.168 24.9241 120.004C21.8405 119.977 20.3226 117.587 17.5862 113.583C18.7957 125.373 19.7586 130.299 22.1724 134.68C21.3959 156.773 20.3379 170.452 19.4207 177.79C18.5034 185.128 21.0087 187.449 24.9241 190.631C23.1166 196.918 21.3639 198.286 17.5862 197.052C20.239 202.904 21.7877 204.753 24.9241 205.765C24.8481 215.447 22.1724 220.441 13 227.321C18.3276 227.477 21.2845 232.763 26.2999 228.238C25.045 234.304 23.5565 236.759 19.4207 239.245C23.5543 242.21 25.8383 243.578 29.5103 240.62C26.2863 246.092 24.6689 249.148 24.9241 254.379C27.185 251.164 28.4596 249.697 30.8861 250.251C30.7347 260.007 31.9119 262.822 35.9309 263.551C46.7884 274.589 59.9031 285.242 75.8308 296.113C104.724 315.833 141.418 306.589 160.217 290.609C179.015 274.63 185.899 263.551 185.899 263.551C190.809 258.301 192.02 255.394 192.779 250.251C198.147 252.233 200.271 250.567 203.327 245.207C198.48 243.281 198.713 239.543 199.199 232.824C202.928 233.912 204.91 232.437 208.372 228.238C201.009 226.17 200.476 223.153 201.492 216.772C205.003 216.016 207.97 214.466 210.665 208.976C207.406 207.186 205.933 205.57 205.161 199.345C207.182 198.24 207.812 197.168 208.372 194.759C206.161 195.358 205.027 194.997 203.327 192.007C196.24 190.874 194.498 186.357 193.237 175.038C197.262 175.744 198.294 173.675 198.282 165.866C204.597 158.031 205.201 153.288 201.951 144.311C200.233 140.082 200.134 136.946 201.034 130.093C202.23 122.765 203.416 118.776 201.951 110.831C200.632 112.875 199.844 113.448 198.282 113.583C199.485 107.924 199.87 104.734 198.282 98.9072L195.532 100.282C195.933 100.029 185.75 58.8826 183.148 53.0453C180.542 47.2014 175.81 45.7081 172.141 53.0453C168.472 60.3825 146.458 106.245 142.789 111.749C139.12 117.252 140.495 122.728 142.789 127.8C125.71 117.556 99.6215 118.207 82.2514 127.8C80.5783 118.759 80.417 119.086 70.3274 103.035C60.2377 86.9831 54.5932 77.9219 44.6447 59.466Z" fill="#E1E7F5"/>
<path d="M45.5119 240.788C40.1485 239.681 37.6462 232.539 34.3695 202.562C38.2781 203.586 41.6599 204.803 44.3188 200.484C53.8705 184.97 58.1894 158.926 85.8595 160.856C89.8508 161.134 95.3308 163.514 97.5759 165.373C95.385 164.84 93.4665 166.785 96.496 168.071C103.27 170.948 108.585 180.012 108.585 180.012C87.2943 188.934 73.0778 207.425 67.2996 214.941L67.231 215.03C61.4972 222.488 56.6834 221.227 55.2243 222.974C61.2077 226.629 53.6627 234.346 45.5119 240.788Z" fill="#BCC3D4"/>
<path d="M179.126 48C180.676 48.6357 182.087 50.2938 183.147 52.6713C185.749 58.5088 195.93 99.6422 195.532 99.9081L198.282 98.5332C199.87 104.36 199.485 107.55 198.282 113.209C199.843 113.074 200.631 112.501 201.951 110.457C203.416 118.402 202.23 122.391 201.033 129.719C200.134 136.571 200.232 139.708 201.951 143.936C205.2 152.914 204.597 157.657 198.282 165.492C198.294 173.301 197.261 175.37 193.237 174.664C194.498 185.982 196.239 190.499 203.327 191.633C205.026 194.623 206.161 194.984 208.371 194.385C207.812 196.794 207.181 197.866 205.161 198.971C205.933 205.196 207.405 206.812 210.664 208.602C207.97 214.092 205.003 215.642 201.492 216.398C200.476 222.779 201.009 225.796 208.371 227.864C204.91 232.062 202.928 233.538 199.199 232.45C198.712 239.169 198.48 242.907 203.327 244.833C200.271 250.192 198.146 251.858 192.778 249.877C192.02 255.02 190.809 257.927 185.899 263.177C185.862 263.237 178.964 274.298 160.216 290.235C141.044 306.11 103.772 315.565 75.8305 296.113C71.0597 292.857 65.8942 289.256 61.6133 286.023C113.248 288.871 140.804 168.693 82.2511 127.425C98.8307 118.269 123.353 117.26 140.403 126.095C141.413 126.619 145.45 129.94 146.916 129.176C157.465 123.672 165.447 105.107 179.126 48Z" fill="#BCC3D4"/>
<path d="M168.466 88.3584C176.85 126.935 182.687 151.648 198.28 165.865C198.245 166.591 198.592 170.153 198.519 170.749C198.358 172.052 198.094 173.087 197.675 173.863C197.246 174.656 196.653 175.179 195.865 175.437C195.251 175.638 194.548 175.665 193.759 175.576C194.376 180.923 195.118 184.616 196.497 187.121C197.204 188.405 198.076 189.37 199.184 190.084C199.711 190.423 199.596 190.344 201.032 190.63C202.171 190.858 203.689 190.792 204.701 190.172C204.473 191.42 204.306 192.027 203.784 192.465C204.627 193.949 205.22 193.996 205.863 194.32C206.479 194.631 207.175 194.608 208.25 194.316L208.99 194.116L208.817 194.863C208.534 196.082 208.221 197.02 207.692 197.799C207.205 198.516 206.557 199.065 205.654 199.59C206.036 202.505 206.577 204.305 207.368 205.582C208.178 206.888 209.279 207.693 210.883 208.574L211.268 208.785L211.075 209.178C209.706 211.967 208.25 213.79 206.663 215.012C205.164 216.166 203.576 216.76 201.896 217.149C201.43 220.187 201.373 222.306 202.196 223.914C203.033 225.548 204.845 226.772 208.494 227.796L209.172 227.986L208.724 228.53C206.995 230.627 205.584 232.111 204.103 232.916C202.724 233.665 201.319 233.808 199.616 233.406C199.394 236.52 199.267 238.882 199.707 240.706C199.936 241.654 200.316 242.439 200.908 243.098C201.502 243.76 202.331 244.319 203.494 244.781L203.985 244.976L203.724 245.434C202.198 248.11 200.847 249.98 199.133 250.888C197.493 251.756 195.614 251.702 193.143 250.867C192.77 253.209 192.271 255.129 191.304 257.067C190.269 259.14 188.713 261.208 186.261 263.833C185.792 264.572 178.725 275.476 160.512 290.959C148.859 300.865 130.368 308.206 111.081 307.735L108.85 243.372C108.849 232.823 128.06 208.069 152.415 215.854C164.054 219.575 163.965 200.958 149.208 190.084C141.04 184.065 136.342 188.636 124.898 180.541C118.568 176.064 119.435 171.088 126.274 162.655C131.922 156.111 129.487 148.437 136.367 142.934C135.45 153.024 141.806 144.213 143.873 140.641C154.897 121.591 162.447 108.765 168.466 88.3584Z" fill="#A3A9C0"/>
<path d="M108.898 241.884C132.08 237.024 161.729 240.234 187.282 262.701C186.958 263.066 186.616 263.442 186.255 263.83C185.785 264.569 178.718 275.473 160.506 290.955C147.405 302.092 116.189 317.209 83.627 300.699C139.578 311.706 115.44 284.424 108.843 242.91C108.843 242.581 108.862 242.239 108.898 241.884Z" fill="#8A93AB" fill-opacity="0.85"/>
<path d="M73.0786 186.044C66.0719 185.303 62.6479 185.228 56.5684 181.917C62.9716 193.489 65.7407 196.593 65.2821 202.096C64.9714 205.824 68.3603 206.94 71.2442 205.306C76.0559 202.581 79.4993 197.051 80.4165 193.841C82.0989 187.952 77.754 186.539 73.0786 186.044Z" fill="black"/>
<path d="M151.412 186.044C158.418 185.303 161.842 185.228 167.922 181.917C161.519 193.489 158.749 196.593 159.208 202.096C159.519 205.824 156.13 206.94 153.246 205.306C148.434 202.581 144.991 197.051 144.074 193.841C142.391 187.952 146.736 186.539 151.412 186.044Z" fill="black"/>
<path d="M155.631 262.634C147.834 266.761 137.824 260.161 140.489 247.041C126.926 249.259 118.22 246.506 108.851 241.996C99.6788 245.665 79.4995 256.672 79.9584 247.041C68.9257 254.041 68.9515 260.341 73.5377 269.972C64.3725 270.889 61.2169 279.266 68.9445 285.565C79.1809 295.271 96.003 302.534 106.551 303.451C122.825 304.866 142.789 299.782 153.337 289.234C150.196 289.459 146.916 287.858 145.999 287.399C152.809 284.496 152.438 275.754 149.668 272.723C151.045 272.723 156.548 269.513 155.631 262.634Z" fill="#686B7D"/>
<path d="M129.492 254.837C113.323 247.736 102.179 248.356 85.9233 255.298C81.9979 256.974 82.9954 260.82 85.9233 264.929C90.7057 272.892 95.8356 278.279 108.391 280.979C118.439 278.314 124.116 272.655 129.492 264.929C131.683 261.169 133.611 256.646 129.492 254.837Z" fill="#303139"/>
<path d="M121.766 251.938C124.243 252.694 126.803 253.658 129.487 254.837C133.552 256.622 131.65 261.215 129.488 264.927C124.205 272.519 118.361 278.293 108.524 280.94C102.011 273.881 93.7667 266.048 90.4225 263.408C81.8529 256.644 93.5164 254.002 96.7595 257.977C103.041 265.674 109.555 274.238 120.299 258.882C122.014 256.431 121.994 254.558 121.766 251.938Z" fill="black"/>
<path d="M50.1484 109.914C42.7327 102.499 41.7403 93.1673 39.1415 75.5171C34.8436 92.5041 30.8876 114.958 33.1807 128.717C33.6142 131.318 30.8872 129.634 29.5113 126.882C27.6766 142.017 29.7296 156.995 30.8864 175.955C42.5744 158.084 49.1047 148.421 63.4483 134.679C60.7368 125.118 60.2392 120.003 50.1484 109.914Z" fill="#BCC3D4"/>
<ellipse cx="7.3379" cy="1.37586" rx="7.3379" ry="1.37586" transform="matrix(1 0 0 -1 100.596 254.378)" fill="#E1E7F5"/>
<path d="M254.752 242V146H271.648V227.792L266.528 224.592L330.784 146H349.088L269.856 242H254.752ZM300.448 193.744L312.352 182.096L350.496 242H331.168L300.448 193.744Z" fill="#436EEE"/>
<path d="M431 186.96V201.04H370.852V186.96H431ZM381.988 194L375.204 236.88L367.14 227.408H431L441.636 242H357.924L365.604 194L357.924 146L441.5 146L431 160.592H367.14L375.204 151.12L381.988 194Z" fill="#181924"/>
<path d="M461.628 189.264H500.668C506.3 189.264 510.737 187.984 513.98 185.424C517.308 182.864 518.972 179.365 518.972 174.928C518.972 170.405 517.308 166.907 513.98 164.432C510.737 161.872 506.3 160.592 500.668 160.592H459.196L466.748 151.12V242H449.852V146H502.204C508.945 146 514.833 147.237 519.868 149.712C524.988 152.101 528.956 155.472 531.772 159.824C534.673 164.091 536.124 169.125 536.124 174.928C536.124 180.56 534.673 185.552 531.772 189.904C528.956 194.171 524.988 197.541 519.868 200.016C514.833 202.405 508.945 203.6 502.204 203.6H461.628V189.264ZM480.572 197.072H500.412L538.556 242H518.332L480.572 197.072Z" fill="#181924"/>
<path d="M636.162 231.76L629.25 232.528V146H645.634V242H624.13L556.802 155.472L563.586 154.704V242H547.202V146H569.218L636.162 231.76Z" fill="#181924"/>
</svg>
